<svg width="327" height="292" viewBox="0 0 327 292" fill="none" xmlns="http://www.w3.org/2000/svg">
<g clip-path="url(#clip0_4_333)">
<path d="M309.633 165.709C304.842 162.012 299.952 158.43 297.073 153.092C282.509 126.034 312.857 94.397 296.006 65.0762C287.453 50.1896 270.586 39.3294 254.142 45.5111C236.599 52.107 220.039 58.9942 201.184 53.5335C168.156 43.9772 151.028 -0.736421 115.067 0.00752819C85.5483 0.621094 52.6971 31.6829 69.7945 63.9258C82.7307 88.315 74.6465 108.501 44.7358 112.704C14.8251 116.907 1.88885 152.233 10.7792 167.365C19.6695 182.505 36.6516 198.481 20.4832 205.207C4.3072 211.941 -1.35097 233.807 0.268943 248.947C1.88885 264.086 5.12099 269.969 5.12099 269.969H315.414C315.414 269.969 328.504 253.15 330.124 214.472C330.822 197.706 327.352 181.286 314.662 169.82C313.065 168.378 311.353 167.036 309.633 165.709Z" fill="#91D7F8"/>
<path opacity="0.7" d="M309.633 165.709C304.842 162.012 299.952 158.43 297.073 153.092C282.509 126.034 312.857 94.397 296.006 65.0762C287.453 50.1896 270.586 39.3294 254.142 45.5111C236.599 52.107 220.039 58.9942 201.184 53.5335C168.156 43.9772 151.028 -0.736421 115.067 0.00752819C85.5483 0.621094 52.6971 31.6829 69.7945 63.9258C82.7307 88.315 74.6465 108.501 44.7358 112.704C14.8251 116.907 1.88885 152.233 10.7792 167.365C19.6695 182.505 36.6516 198.481 20.4832 205.207C4.3072 211.941 -1.35097 233.807 0.268943 248.947C1.88885 264.086 5.12099 269.969 5.12099 269.969H315.414C315.414 269.969 328.504 253.15 330.124 214.472C330.822 197.706 327.352 181.286 314.662 169.82C313.065 168.378 311.353 167.036 309.633 165.709Z" fill="white"/>
<path d="M163.188 294.865C195.625 294.865 221.92 292.117 221.92 288.729C221.92 285.34 195.625 282.593 163.188 282.593C130.752 282.593 104.457 285.34 104.457 288.729C104.457 292.117 130.752 294.865 163.188 294.865Z" fill="#DEF3FD"/>
<path opacity="0.5" d="M163.188 294.865C195.625 294.865 221.92 292.117 221.92 288.729C221.92 285.34 195.625 282.593 163.188 282.593C130.752 282.593 104.457 285.34 104.457 288.729C104.457 292.117 130.752 294.865 163.188 294.865Z" fill="white"/>
<path d="M295.906 238.025V228.668H285.449V210.492H270.425V136.703H256.053V181.309H242.986V165.333H225.351V206.641H218.166V219.856H201.176V214.902H206.404V212.148H184.846V215.446H187.464V229.765H176.355V202.784H137.155V222.057H109.071V207.738H98.6148V223.714H76.4044V194.523H67.2607V184.607H50.9234V229.765H34.5938V239.682H24.1451V269.969H316.158V238.025H295.906Z" stroke="#263238" stroke-miterlimit="10"/>
<path d="M57.3493 194.393H53.8178V197.921H57.3493V194.393Z" fill="#263238"/>
<path d="M64.7042 194.393H61.1726V197.921H64.7042V194.393Z" fill="#263238"/>
<path d="M57.3493 201.741H53.8178V205.269H57.3493V201.741Z" fill="#263238"/>
<path d="M64.7042 201.741H61.1726V205.269H64.7042V201.741Z" fill="#263238"/>
<path d="M72.6502 201.741H69.1186V205.269H72.6502V201.741Z" fill="#263238"/>
<path d="M72.6502 209.096H69.1186V212.624H72.6502V209.096Z" fill="#263238"/>
<path d="M72.6502 216.443H69.1186V219.971H72.6502V216.443Z" fill="#263238"/>
<path d="M72.6502 223.798H69.1186V227.326H72.6502V223.798Z" fill="#263238"/>
<path d="M72.6502 231.153H69.1186V234.681H72.6502V231.153Z" fill="#263238"/>
<path d="M72.6502 238.501H69.1186V242.029H72.6502V238.501Z" fill="#263238"/>
<path d="M57.3493 209.096H53.8178V212.624H57.3493V209.096Z" fill="#263238"/>
<path d="M64.7042 209.096H61.1726V212.624H64.7042V209.096Z" fill="#263238"/>
<path d="M57.3493 216.443H53.8178V219.971H57.3493V216.443Z" fill="#263238"/>
<path d="M64.7042 216.443H61.1726V219.971H64.7042V216.443Z" fill="#263238"/>
<path d="M57.3493 223.798H53.8178V227.326H57.3493V223.798Z" fill="#263238"/>
<path d="M64.7042 223.798H61.1726V227.326H64.7042V223.798Z" fill="#263238"/>
<path d="M57.3493 231.153H53.8178V234.681H57.3493V231.153Z" fill="#263238"/>
<path d="M41.1579 235.264H37.6264V238.792H41.1579V235.264Z" fill="#263238"/>
<path d="M92.0814 227.326H88.5498V230.854H92.0814V227.326Z" fill="#263238"/>
<path d="M99.1445 227.326H95.6129V230.854H99.1445V227.326Z" fill="#263238"/>
<path d="M261.934 140.867H258.402V144.395H261.934V140.867Z" fill="#263238"/>
<path d="M266.348 140.867H262.817V144.395H266.348V140.867Z" fill="#263238"/>
<path d="M261.934 148.222H258.402V151.75H261.934V148.222Z" fill="#263238"/>
<path d="M266.348 148.222H262.817V151.75H266.348V148.222Z" fill="#263238"/>
<path d="M261.934 155.57H258.402V159.098H261.934V155.57Z" fill="#263238"/>
<path d="M266.348 155.57H262.817V159.098H266.348V155.57Z" fill="#263238"/>
<path d="M261.934 162.925H258.402V166.453H261.934V162.925Z" fill="#263238"/>
<path d="M266.348 162.925H262.817V166.453H266.348V162.925Z" fill="#263238"/>
<path d="M261.934 170.28H258.402V173.808H261.934V170.28Z" fill="#263238"/>
<path d="M266.348 170.28H262.817V173.808H266.348V170.28Z" fill="#263238"/>
<path d="M261.934 177.627H258.402V181.155H261.934V177.627Z" fill="#263238"/>
<path d="M266.348 177.627H262.817V181.155H266.348V177.627Z" fill="#263238"/>
<path d="M261.934 184.982H258.402V188.51H261.934V184.982Z" fill="#263238"/>
<path d="M266.348 184.982H262.817V188.51H266.348V184.982Z" fill="#263238"/>
<path d="M261.934 192.33H258.402V195.858H261.934V192.33Z" fill="#263238"/>
<path d="M266.348 192.33H262.817V195.858H266.348V192.33Z" fill="#263238"/>
<path d="M261.934 199.685H258.402V203.213H261.934V199.685Z" fill="#263238"/>
<path d="M266.348 199.685H262.817V203.213H266.348V199.685Z" fill="#263238"/>
<path d="M231.908 199.685H228.376V203.213H231.908V199.685Z" fill="#263238"/>
<path d="M239.562 199.685H236.031V203.213H239.562V199.685Z" fill="#263238"/>
<path d="M247.216 199.685H243.685V203.213H247.216V199.685Z" fill="#263238"/>
<path d="M231.908 215.561H228.376V219.089H231.908V215.561Z" fill="#263238"/>
<path d="M239.562 215.561H236.031V219.089H239.562V215.561Z" fill="#263238"/>
<path d="M247.216 215.561H243.685V219.089H247.216V215.561Z" fill="#263238"/>
<path d="M231.908 231.445H228.376V234.973H231.908V231.445Z" fill="#263238"/>
<path d="M239.562 231.445H236.031V234.973H239.562V231.445Z" fill="#263238"/>
<path d="M247.216 231.445H243.685V234.973H247.216V231.445Z" fill="#263238"/>
<path d="M261.934 207.033H258.402V210.561H261.934V207.033Z" fill="#263238"/>
<path d="M266.348 207.033H262.817V210.561H266.348V207.033Z" fill="#263238"/>
<path d="M261.934 214.388H258.402V217.916H261.934V214.388Z" fill="#263238"/>
<path d="M266.348 214.388H262.817V217.916H266.348V214.388Z" fill="#263238"/>
<path d="M261.934 221.743H258.402V225.271H261.934V221.743Z" fill="#263238"/>
<path d="M266.348 221.743H262.817V225.271H266.348V221.743Z" fill="#263238"/>
<path d="M273.711 214.388H270.179V217.916H273.711V214.388Z" fill="#263238"/>
<path d="M281.956 214.388H278.425V217.916H281.956V214.388Z" fill="#263238"/>
<path d="M273.711 221.444H270.179V224.972H273.711V221.444Z" fill="#263238"/>
<path d="M281.956 221.444H278.425V224.972H281.956V221.444Z" fill="#263238"/>
<path d="M273.711 228.507H270.179V232.035H273.711V228.507Z" fill="#263238"/>
<path d="M281.956 228.507H278.425V232.035H281.956V228.507Z" fill="#263238"/>
<path d="M273.711 235.563H270.179V239.091H273.711V235.563Z" fill="#263238"/>
<path d="M281.956 235.563H278.425V239.091H281.956V235.563Z" fill="#263238"/>
<path d="M261.934 229.09H258.402V232.618H261.934V229.09Z" fill="#263238"/>
<path d="M266.348 229.09H262.817V232.618H266.348V229.09Z" fill="#263238"/>
<path d="M261.934 236.445H258.402V239.973H261.934V236.445Z" fill="#263238"/>
<path d="M266.348 236.445H262.817V239.973H266.348V236.445Z" fill="#263238"/>
<path d="M64.7042 231.153H61.1726V234.681H64.7042V231.153Z" fill="#263238"/>
<path d="M57.3493 238.501H53.8178V242.029H57.3493V238.501Z" fill="#263238"/>
<path d="M64.7042 238.501H61.1726V242.029H64.7042V238.501Z" fill="#263238"/>
<path d="M57.3493 245.856H53.8178V249.384H57.3493V245.856Z" fill="#263238"/>
<path d="M64.7042 245.856H61.1726V249.384H64.7042V245.856Z" fill="#263238"/>
<path d="M57.3493 253.203H53.8178V256.731H57.3493V253.203Z" fill="#263238"/>
<path d="M64.7042 253.203H61.1726V256.731H64.7042V253.203Z" fill="#263238"/>
<path d="M250.748 255.412V269.969H221.313V241.039H250.748V252.828" stroke="#263238" stroke-miterlimit="10"/>
<path d="M304.919 265.574V269.969H275.477V254.676H281.557" stroke="#263238" stroke-miterlimit="10"/>
<path d="M285.142 254.676H304.919V263.181" stroke="#263238" stroke-miterlimit="10"/>
<path d="M87.951 254.676H108.864V269.969H79.4215V254.676H85.1565" stroke="#263238" stroke-miterlimit="10"/>
<path d="M41.8949 254.676H44.6895V269.969H33.7954V254.676H39.6992" stroke="#263238" stroke-miterlimit="10"/>
<path d="M238.38 241.039H233.674V269.969H238.38V241.039Z" stroke="#263238" stroke-miterlimit="10"/>
<path d="M201.798 244.974H197.176V237.327H212.776V244.974H205.989" stroke="#263238" stroke-miterlimit="10"/>
<path d="M119.167 232.035H101.21V238.508H119.167V232.035Z" stroke="#263238" stroke-miterlimit="10"/>
<path d="M111.513 232.035H109.747V269.969H111.513V232.035Z" stroke="#263238" stroke-miterlimit="10"/>
<path d="M166.597 1.60297C111.904 1.60297 67.5601 45.9024 67.5601 100.54C67.5601 149.894 158.92 266.203 158.92 266.203H166.597C166.597 266.203 265.634 155.179 265.634 100.54C265.634 45.9024 221.29 1.60297 166.597 1.60297ZM166.597 148.859C139.888 148.859 118.23 127.223 118.23 100.54C118.23 73.858 139.888 52.2222 166.597 52.2222C193.306 52.2222 214.964 73.858 214.964 100.54C214.964 127.223 193.306 148.859 166.597 148.859Z" fill="#263238" stroke="#263238" stroke-linecap="round" stroke-linejoin="round"/>
<path d="M158.92 1.60297C104.227 1.60297 59.8828 45.9024 59.8828 100.54C59.8828 155.179 158.92 266.203 158.92 266.203C158.92 266.203 257.957 155.179 257.957 100.54C257.957 45.9024 213.613 1.60297 158.92 1.60297ZM158.92 148.859C132.211 148.859 110.553 127.223 110.553 100.54C110.553 73.858 132.211 52.2222 158.92 52.2222C185.629 52.2222 207.287 73.858 207.287 100.54C207.287 127.223 185.629 148.859 158.92 148.859Z" fill="#429AF8" stroke="#263238" stroke-linecap="round" stroke-linejoin="round"/>
<path d="M127.773 160.839L138.713 142.24L138.905 148.951L132.379 161.989L127.773 160.839Z" fill="white" stroke="#263238" stroke-linecap="round" stroke-linejoin="round"/>
<path d="M138.905 223.668C138.905 223.668 138.291 228.185 134.79 232.496C131.297 236.806 126.568 245.227 126.36 253.234C126.153 261.241 116.887 283.399 117.915 285.04C118.944 286.681 127.988 288.944 131.489 288.944C133.324 288.944 136.364 289.649 137.569 287.862C137.638 287.762 130.399 284.012 129.923 283.667C129.562 283.399 125.385 280.476 125.524 280.116C125.524 280.116 134.997 254.469 139.719 247.896C144.448 241.323 147.941 236.399 149.385 232.288C150.82 228.178 152.056 224.281 152.056 224.281L138.897 223.668H138.905Z" fill="white" stroke="#263238" stroke-linecap="round" stroke-linejoin="round"/>
<g style="mix-blend-mode:multiply">
<path d="M136.333 230.294C139.78 231.729 144.203 233.216 148.771 233.838C149.008 233.309 149.216 232.795 149.392 232.296C150.828 228.185 152.064 224.289 152.064 224.289L138.905 223.676C138.905 223.676 138.475 226.782 136.333 230.31V230.294Z" fill="#429AF8"/>
</g>
<path d="M168.655 225.348C168.655 225.348 171.603 228.829 172.478 234.306C173.353 239.782 176.447 248.931 182.274 254.438C188.094 259.953 198.397 283.145 200.308 283.483C202.542 283.874 205.943 281.029 207.609 279.871C209.721 278.398 214.565 275.391 215.31 272.791C216.169 269.8 213.091 271.304 211.801 272.27C210.12 273.52 201.728 274.548 201.728 274.548C201.728 274.548 188.969 248.862 187.241 240.955C185.514 233.048 184.186 227.158 182.09 223.338C179.994 219.519 177.921 215.998 177.921 215.998L168.662 225.355L168.655 225.348Z" fill="white" stroke="#263238" stroke-linecap="round" stroke-linejoin="round"/>
<g style="mix-blend-mode:multiply">
<path d="M182.09 223.33C179.994 219.511 177.921 215.991 177.921 215.991L168.662 225.347C168.662 225.347 170.873 227.963 172.033 232.219C176.478 231.391 180.762 230.294 184.332 228.968C183.656 226.759 182.942 224.872 182.098 223.33H182.09Z" fill="#429AF8"/>
</g>
<path d="M215.302 272.791C216.162 269.8 213.083 271.304 211.793 272.27C210.112 273.52 201.721 274.548 201.721 274.548C201.721 274.548 200.807 272.554 199.487 269.547C197.713 270.997 195.671 272.025 194.09 272.684C196.969 278.352 199.356 283.322 200.3 283.491C202.535 283.882 205.936 281.036 207.602 279.878C209.713 278.406 214.557 275.399 215.302 272.799V272.791Z" fill="white" stroke="#263238" stroke-linecap="round" stroke-linejoin="round"/>
<path d="M139.182 182.674L132.026 221.973C132.026 221.973 136.625 225.033 142.245 227.081C147.865 229.121 157.576 228.615 157.576 228.615L161.407 209.471L162.943 227.334C162.943 227.334 170.351 228.101 175.718 227.081C181.084 226.061 189.767 220.447 189.767 220.447L172.908 189.055L169.077 181.654L139.189 180.887V182.674H139.182Z" fill="white" stroke="#263238" stroke-miterlimit="10"/>
<g style="mix-blend-mode:multiply">
<path d="M161.707 205.253C164.302 202.009 165.238 182.935 165.238 182.935L139.182 180.964V182.682L135.926 200.552C143.22 202.876 159.688 207.777 161.707 205.261V205.253Z" fill="#429AF8"/>
</g>
<path d="M183.242 151.635L197.828 155.47L203.778 137.83L181.514 133.612L176.524 149.91L183.242 151.635Z" fill="#263238" stroke="#263238" stroke-linecap="round" stroke-linejoin="round"/>
<path d="M186.09 143.475L195.364 145.737" stroke="white" stroke-linecap="round" stroke-linejoin="round"/>
<path d="M185.192 145.737L194.466 147.992" stroke="white" stroke-linecap="round" stroke-linejoin="round"/>
<path d="M168.079 152.594C168.079 152.594 172.685 150.101 174.221 147.992C175.756 145.883 177.484 142.24 178.251 141.665C179.019 141.09 182.858 139.172 183.625 138.597C184.393 138.022 185.545 139.172 184.201 140.323C182.858 141.473 179.979 143.966 179.979 143.966C179.979 143.966 180.746 147.417 179.787 148.567C178.827 149.718 178.059 150.293 178.059 150.293L183.242 151.635C183.242 151.635 179.787 154.128 178.251 154.511C176.716 154.895 173.645 155.087 173.645 155.087L167.311 160.072L168.079 152.594Z" fill="white" stroke="#263238" stroke-linecap="round" stroke-linejoin="round"/>
<path d="M147.35 110.71C147.35 110.71 141.216 119.645 139.688 130.107C138.153 140.568 139.174 182.682 139.174 182.682C139.174 182.682 147.35 186.003 153.738 186.003C160.125 186.003 169.576 186.516 169.829 182.942C170.083 179.368 168.041 138.282 165.231 128.327C162.421 118.372 156.801 109.951 156.801 109.951C156.801 109.951 150.413 105.61 147.35 110.718V110.71Z" fill="#263238" stroke="#263238" stroke-linecap="round" stroke-linejoin="round"/>
<path d="M161.361 118.464L153.108 171.001L160.402 173.685L163.664 123.258L161.361 118.464Z" fill="white" stroke="#263238" stroke-linecap="round" stroke-linejoin="round"/>
<path d="M143.089 90.3553C143.089 90.3553 144.11 95.2025 146.153 97.7564C148.195 100.31 152.026 101.584 152.026 101.584L150.928 107.389L158.083 111.73L160.716 99.2904L161.484 84.4881C161.484 84.4881 143.604 87.5482 143.089 90.3553Z" fill="white" stroke="#263238" stroke-linecap="round" stroke-linejoin="round"/>
<path d="M143.089 90.3553C143.089 90.3553 144.11 95.2024 146.153 97.7564C148.195 100.31 152.026 101.584 152.026 101.584C152.026 101.584 158.16 99.7965 158.667 95.7163C159.035 92.7789 158.475 87.7169 158.137 85.117C152.939 86.16 143.458 88.3228 143.089 90.3553Z" fill="#263238" stroke="#263238" stroke-linecap="round" stroke-linejoin="round"/>
<path d="M153.561 91.6284C153.561 91.6284 151.005 88.5683 149.477 89.8414C147.941 91.1146 148.456 94.6886 150.245 96.4756C152.033 98.2626 154.329 96.7287 154.329 96.7287C154.329 96.7287 155.35 100.05 157.139 101.576C158.928 103.11 165.062 104.13 167.104 102.596C169.146 101.062 168.378 95.4479 168.378 95.4479C168.378 95.4479 171.956 93.6609 171.703 92.3877C171.449 91.1146 168.893 90.0945 168.893 89.0668C168.893 88.0391 168.639 86.7736 168.639 86.7736V84.7335L156.885 87.2874C156.885 87.2874 155.35 93.1547 153.561 91.6284Z" fill="white" stroke="#263238" stroke-linecap="round" stroke-linejoin="round"/>
<g style="mix-blend-mode:multiply" opacity="0.5">
<g style="mix-blend-mode:multiply">
<path d="M156.885 87.2874C156.885 87.2874 156.31 89.4733 155.457 90.8308C160.048 90.616 164.985 90.3323 169.399 89.9488C169.1 89.6573 168.893 89.3659 168.893 89.0744C168.893 88.0544 168.639 86.7812 168.639 86.7812V84.7411L156.885 87.2951V87.2874Z" fill="#DEF3FD"/>
</g>
</g>
<path d="M143.089 90.3553L168.639 84.7411C168.639 84.7411 165.062 72.2321 160.716 71.212C156.371 70.192 147.941 69.6781 143.343 74.2722C138.744 78.8663 143.089 90.3476 143.089 90.3476V90.3553Z" fill="white" stroke="#263238" stroke-linecap="round" stroke-linejoin="round"/>
<path d="M160.202 86.7812C160.202 86.7812 165.822 88.0544 170.42 88.3152C175.019 88.5683 185.491 84.488 182.942 84.2349C180.386 83.9819 168.639 84.7488 168.639 84.7488L160.21 86.7889L160.202 86.7812Z" fill="#263238" stroke="#263238" stroke-linecap="round" stroke-linejoin="round"/>
<path d="M148.379 105.349L146.076 110.45L157.569 117.598L159.872 110.45L148.379 105.349Z" fill="white" stroke="#263238" stroke-linecap="round" stroke-linejoin="round"/>
<path d="M124.702 158.73L165.584 169.275L161.338 199.141C161.046 201.211 159.012 202.561 156.985 202.04L119.819 192.391C118.368 192.016 117.478 190.558 117.816 189.093L124.71 158.73H124.702Z" fill="white" stroke="#263238" stroke-linecap="round" stroke-linejoin="round"/>
<path d="M124.702 158.73C124.702 158.73 134.322 182.099 140.272 185.167C146.222 188.234 165.584 169.275 165.584 169.275" stroke="#263238" stroke-linecap="round" stroke-linejoin="round"/>
<path d="M132.794 148.475C132.794 148.475 130.238 154.089 131.005 156.13C131.773 158.17 163.449 169.659 163.449 169.659C163.449 169.659 163.703 174 164.471 175.02C165.238 176.04 166.006 178.594 166.006 178.594C166.006 178.594 164.471 182.168 165.238 182.935C166.006 183.702 168.302 179.361 168.302 178.088C168.302 176.814 168.555 169.919 167.787 168.132C167.019 166.345 145.308 153.077 145.308 153.077L132.786 148.483L132.794 148.475Z" fill="white" stroke="#263238" stroke-linecap="round" stroke-linejoin="round"/>
<path d="M146.843 117.851L132.026 149.242L145.308 153.069L156.041 128.059" fill="#263238"/>
<path d="M146.843 117.851L132.026 149.242L145.308 153.069L156.041 128.059" stroke="#263238" stroke-linecap="round" stroke-linejoin="round"/>
<path d="M145.308 153.069L155.089 131.157" stroke="white" stroke-linecap="round" stroke-linejoin="round"/>
<path d="M151.734 139.21L156.655 134.294" stroke="white" stroke-linecap="round" stroke-linejoin="round"/>
<path d="M137.147 221.183C141.055 223.208 148.156 225.961 157.062 225.301" stroke="#263238" stroke-linecap="round" stroke-linejoin="round"/>
<path d="M133.815 219.173C133.815 219.173 134.406 219.618 135.504 220.27" stroke="#263238" stroke-linecap="round" stroke-linejoin="round"/>
<path d="M183.61 219.381C184.57 218.859 185.514 218.284 186.435 217.64" stroke="#263238" stroke-linecap="round" stroke-linejoin="round"/>
<path d="M163.956 224.274C163.956 224.274 172.678 224.45 181.353 220.508" stroke="#263238" stroke-linecap="round" stroke-linejoin="round"/>
<path d="M161.407 209.471L166.92 199.946" stroke="#263238" stroke-linecap="round" stroke-linejoin="round"/>
<path d="M161.707 208.973L170.896 198.565" stroke="#263238" stroke-linecap="round" stroke-linejoin="round"/>
<path d="M138.268 204.847L137.5 210.507C137.5 210.507 139.949 212.34 143.627 213.567C147.304 214.794 155.12 214.641 155.12 214.641L156.194 209.287C156.194 209.287 142.56 207.753 139.803 205.46" stroke="#263238" stroke-linecap="round" stroke-linejoin="round"/>
<path d="M137.354 212.647C137.354 212.647 135.212 217.847 136.587 219.074C137.969 220.301 147.772 223.975 150.375 223.668C152.978 223.361 154.513 216.934 154.513 216.934" stroke="#263238" stroke-linecap="round" stroke-linejoin="round"/>
<path d="M215.302 272.791C216.162 269.8 213.083 271.304 211.793 272.27C210.112 273.52 201.721 274.548 201.721 274.548C201.721 274.548 201.329 273.696 200.692 272.27C199.663 273.16 197.805 274.571 195.487 275.445C197.729 279.878 199.517 283.352 200.3 283.491C202.535 283.882 205.936 281.036 207.602 279.878C209.713 278.406 214.557 275.399 215.302 272.799V272.791Z" fill="#263238" stroke="#263238" stroke-linecap="round" stroke-linejoin="round"/>
<path d="M208.922 276.979C205.467 278.774 201.437 280.952 199.11 282.171C199.617 282.954 200.024 283.437 200.3 283.483C202.535 283.874 205.936 281.029 207.602 279.871C209.713 278.398 214.557 275.391 215.302 272.791C215.663 271.534 215.325 271.074 214.718 271.035C213.406 273.167 211.448 275.668 208.914 276.979H208.922Z" fill="white" stroke="#263238" stroke-linecap="round" stroke-linejoin="round"/>
<path d="M129.93 283.667C129.57 283.399 125.393 280.476 125.531 280.116C125.531 280.116 126.36 277.869 127.65 274.54C125.132 274.256 122.837 273.482 121.255 272.83C119.213 279.027 117.439 284.281 117.923 285.055C118.952 286.696 127.996 288.959 131.497 288.959C133.331 288.959 136.372 289.665 137.577 287.878C137.646 287.778 130.406 284.027 129.93 283.682V283.667Z" fill="white" stroke="#263238" stroke-linecap="round" stroke-linejoin="round"/>
<path d="M137.577 287.87C137.646 287.77 130.406 284.02 129.93 283.675C129.57 283.406 125.393 280.484 125.531 280.124C125.531 280.124 125.831 279.311 126.345 277.953C123.842 277.516 121.562 276.734 120.15 276.189C118.629 280.837 117.532 284.434 117.923 285.055C118.952 286.696 127.996 288.959 131.497 288.959C133.331 288.959 136.372 289.665 137.577 287.878V287.87Z" fill="#263238" stroke="#263238" stroke-linecap="round" stroke-linejoin="round"/>
<path d="M130.391 287.256C125.677 286.973 120.457 285.04 117.9 283.989C117.816 284.518 117.816 284.886 117.915 285.055C118.944 286.696 127.988 288.959 131.489 288.959C133.324 288.959 136.364 289.665 137.569 287.878C137.585 287.855 137.155 287.601 136.495 287.241C134.928 287.364 132.894 287.417 130.391 287.264V287.256Z" fill="white" stroke="#263238" stroke-linecap="round" stroke-linejoin="round"/>
<path d="M158.874 86.8043L154.774 77.0716" stroke="black" stroke-linecap="round" stroke-linejoin="round"/>
<path d="M154.26 75.2769C154.26 75.2769 152.978 72.4622 154.006 71.1813" stroke="black" stroke-linecap="round" stroke-linejoin="round"/>
</g>
<defs>
<clipPath id="clip0_4_333">
<rect width="327" height="292" fill="white"/>
</clipPath>
</defs>
</svg>
